HIERARCHY
ROOT Hips
{
	OFFSET -0.001795 -0.223333 0.028219
	CHANNELS 6 Xposition Yposition Zposition Zrotation Yrotation Xrotation 
	JOINT LeftUpLeg
	{
		OFFSET 0.069520 -0.091406 -0.006815
		CHANNELS 3 Zrotation Yrotation Xrotation
		JOINT LeftLeg
		{
			OFFSET 0.034277 -0.375199 -0.004496
			CHANNELS 3 Zrotation Yrotation Xrotation
			JOINT LeftFoot
			{
				OFFSET -0.013596 -0.397961 -0.043693
				CHANNELS 3 Zrotation Yrotation Xrotation
				JOINT LeftToe
				{
					OFFSET 0.026358 -0.055791 0.119288
					CHANNELS 3 Zrotation Yrotation Xrotation
					End Site
					{
						OFFSET 0.000000 0.000000 0.000000
					}
				}
			}
		}
	}
	JOINT RightUpLeg
	{
		OFFSET -0.067670 -0.090522 -0.004320
		CHANNELS 3 Zrotation Yrotation Xrotation
		JOINT RightLeg
		{
			OFFSET -0.038290 -0.382569 -0.008850
			CHANNELS 3 Zrotation Yrotation Xrotation
			JOINT RightFoot
			{
				OFFSET 0.015774 -0.398415 -0.042312
				CHANNELS 3 Zrotation Yrotation Xrotation
				JOINT RightToe
				{
					OFFSET -0.025372 -0.048144 0.123348
					CHANNELS 3 Zrotation Yrotation Xrotation
					End Site
					{
						OFFSET 0.000000 0.000000 0.000000
					}
				}
			}
		}
	}
	JOINT Spine
	{
		OFFSET -0.002533 0.108963 -0.026696
		CHANNELS 3 Zrotation Yrotation Xrotation
		JOINT Spine1
		{
			OFFSET 0.005487 0.135180 0.001092
			CHANNELS 3 Zrotation Yrotation Xrotation
			JOINT Spine2
			{
				OFFSET 0.001457 0.052922 0.025425
				CHANNELS 3 Zrotation Yrotation Xrotation
				JOINT Neck
				{
					OFFSET -0.002778 0.213870 -0.042857
					CHANNELS 3 Zrotation Yrotation Xrotation
					JOINT Head
					{
						OFFSET 0.005152 0.064970 0.051349
						CHANNELS 3 Zrotation Yrotation Xrotation
						End Site
						{
							OFFSET 0.000000 0.000000 0.000000
						}
					}
				}
				JOINT LeftShoulder
				{
					OFFSET 0.078845 0.121749 -0.034090
					CHANNELS 3 Zrotation Yrotation Xrotation
					JOINT LeftArm
					{
						OFFSET 0.090977 0.030469 -0.008868
						CHANNELS 3 Zrotation Yrotation Xrotation
						JOINT LeftForeArm
						{
							OFFSET 0.259612 -0.012772 -0.027456
							CHANNELS 3 Zrotation Yrotation Xrotation
							JOINT LeftHand
							{
								OFFSET 0.249234 0.008986 -0.001171
								CHANNELS 3 Zrotation Yrotation Xrotation
								End Site
								{
									OFFSET 0.000000 0.000000 0.000000
								}
							}
						}
					}
				}
				JOINT RightShoulder
				{
					OFFSET -0.081759 0.118833 -0.038615
					CHANNELS 3 Zrotation Yrotation Xrotation
					JOINT RightArm
					{
						OFFSET -0.096012 0.032551 -0.009143
						CHANNELS 3 Zrotation Yrotation Xrotation
						JOINT RightForeArm
						{
							OFFSET -0.253742 -0.013329 -0.021401
							CHANNELS 3 Zrotation Yrotation Xrotation
							JOINT RightHand
							{
								OFFSET -0.255298 0.007772 -0.005559
								CHANNELS 3 Zrotation Yrotation Xrotation
								End Site
								{
									OFFSET 0.000000 0.000000 0.000000
								}
							}
						}
					}
				}
			}
		}
	}
}
MOTION
Frames: 14
Frame Time: 0.050000
-0.630131 0.910218 0.712649 -0.646310 39.521572 2.394321 10.970422 -1.222799 -7.594015 5.428224 -3.108346 18.055144 0.769679 -13.948699 -12.523165 0.000000 0.000000 0.000000 -9.618699 -1.398237 -14.675794 -0.105262 -0.936516 16.399131 6.607473 16.699635 -5.815322 0.000000 0.000000 0.000000 6.070883 -0.095219 -1.535658 -3.337464 -1.404374 14.380050 -2.138935 17.501812 -2.879976 14.208550 -1.461650 -25.172819 0.000000 0.000000 0.000000 -28.053657 -18.701748 -6.248110 -31.567954 24.335547 -5.679808 -162.994627 -89.464841 158.497356 0.000000 0.000000 0.000000 39.769797 18.300617 30.201946 10.569882 17.760563 -2.538710 1.859642 66.973771 2.788502 0.000000 0.000000 0.000000 
-0.660285 0.913967 0.736842 -0.009414 44.587702 3.119371 10.313625 -1.422533 -11.503018 2.953602 -3.795335 22.805848 2.994082 -4.965986 -9.715470 0.000000 0.000000 0.000000 -8.437221 -1.225747 -13.003309 1.000704 -1.477638 15.472703 5.429174 13.137753 -6.665405 0.000000 0.000000 0.000000 7.069807 -0.276013 -0.400449 -2.854705 -2.068676 14.167272 -1.706823 18.930015 -3.614649 13.491756 -0.634189 -25.394751 0.000000 0.000000 0.000000 -28.244444 -19.600561 -7.304071 -30.598136 24.912765 -5.219384 -28.860058 -84.497051 21.923385 0.000000 0.000000 0.000000 37.674202 17.504057 29.876501 10.726875 17.396845 -2.514794 1.292477 63.580439 2.205007 0.000000 0.000000 0.000000 
-0.688450 0.916587 0.756327 1.104058 50.577214 4.562193 8.833961 -1.758663 -15.003561 1.059030 -4.181995 24.928530 5.394194 -0.023434 -9.507994 0.000000 0.000000 0.000000 -7.432136 -1.214477 -12.114273 2.061073 -2.142799 14.945609 4.394450 9.526259 -8.793475 0.000000 0.000000 0.000000 8.301803 -0.527055 0.558842 -1.382229 -3.240632 13.447541 -2.324766 19.636944 -3.776984 14.753418 -0.868080 -25.525912 0.000000 0.000000 0.000000 -29.900555 -21.964830 -8.393015 -29.079790 25.689466 -4.357289 -24.420011 -80.235268 16.588958 0.000000 0.000000 0.000000 36.153688 18.169241 30.964358 10.610541 16.509512 -2.406197 -1.783193 60.048134 -0.148769 0.000000 0.000000 0.000000 
-0.715189 0.917654 0.770787 2.374047 55.433474 5.130318 6.942558 -2.052943 -17.039511 -0.484608 -4.415054 26.043043 7.209027 4.204996 -8.491744 0.000000 0.000000 0.000000 -7.315116 -1.421237 -11.585763 3.093149 -3.036270 15.673838 4.146732 7.818728 -8.794212 0.000000 0.000000 0.000000 9.515465 -0.963514 2.674950 -0.709817 -4.317852 14.222334 -2.667415 20.538811 -4.939190 15.626976 -0.779616 -26.402736 0.000000 0.000000 0.000000 -30.183779 -24.242907 -8.674016 -30.475748 26.081109 -4.233198 -15.724978 -78.447307 7.862599 0.000000 0.000000 0.000000 34.023481 19.190030 31.408479 10.354149 16.802980 -2.233220 -4.226614 53.617051 -1.528883 0.000000 0.000000 0.000000 
-0.740660 0.916959 0.780917 5.464406 59.454938 7.859684 5.053642 -2.230488 -17.785886 -1.149762 -4.326568 25.425337 6.423275 1.995345 -8.251890 0.000000 0.000000 0.000000 -7.215385 -1.721098 -12.404065 3.669624 -3.925108 16.956726 3.623489 5.470124 -10.205670 0.000000 0.000000 0.000000 10.181458 -1.338545 4.097440 0.377127 -5.081297 13.551508 -3.068294 20.934548 -4.719369 16.026597 -0.439383 -27.454782 0.000000 0.000000 0.000000 -29.227722 -25.101554 -9.066161 -32.479952 24.800473 -4.084785 -10.983081 -77.611515 2.373030 0.000000 0.000000 0.000000 33.572730 20.096629 32.704138 8.287177 17.117850 -2.130762 -8.282203 45.342805 -3.335407 0.000000 0.000000 0.000000 
-0.765258 0.914282 0.787764 8.436703 61.498303 11.085080 3.169830 -2.512252 -18.880777 -1.074021 -3.930798 23.567967 6.581087 2.270048 -7.783122 0.000000 0.000000 0.000000 -7.438842 -2.250224 -14.782322 3.855589 -4.898101 19.377935 3.260495 4.168892 -10.858100 0.000000 0.000000 0.000000 11.023709 -1.846983 5.575931 0.468714 -5.440050 13.819027 -2.655209 22.511082 -5.112712 15.616718 -0.249539 -26.364494 0.000000 0.000000 0.000000 -29.597355 -27.141355 -9.614934 -34.475807 25.743230 -4.124341 -2.050852 -77.166507 -6.346347 0.000000 0.000000 0.000000 33.422923 21.217309 34.420623 6.347047 16.738459 -2.025817 -10.631319 38.151022 -3.901919 0.000000 0.000000 0.000000 
-0.788553 0.908950 0.793064 13.166349 63.300026 15.866562 0.836680 -2.862956 -19.814877 0.327588 -3.643971 21.288120 5.007790 0.175094 -6.352290 0.000000 0.000000 0.000000 -8.710031 -3.283758 -16.889259 4.038721 -5.905804 21.632532 2.799029 2.583966 -12.054454 0.000000 0.000000 0.000000 11.845689 -2.376957 6.821153 0.894762 -6.465039 15.009086 -3.902727 24.064089 -6.926569 15.477883 -0.072460 -26.254425 0.000000 0.000000 0.000000 -30.307467 -27.736367 -10.558176 -33.970466 26.472069 -3.779838 2.633220 -76.400135 -9.903694 0.000000 0.000000 0.000000 34.191127 21.521308 36.010364 3.217704 17.256064 -2.005797 -12.556312 29.991903 -3.669022 0.000000 0.000000 0.000000 
-0.809690 0.903040 0.798241 17.015103 65.012405 19.733589 -0.345729 -3.272621 -20.881571 0.703102 -3.609228 20.637111 4.667359 -1.624333 -6.854115 0.000000 0.000000 0.000000 -9.252446 -4.102616 -18.612098 4.158682 -6.649079 23.011798 2.559171 1.437004 -13.371576 0.000000 0.000000 0.000000 12.308978 -2.864485 8.034818 0.629144 -7.077498 16.152708 -3.949648 24.962292 -8.560970 15.184892 -0.372438 -24.581511 0.000000 0.000000 0.000000 -30.815108 -29.047812 -10.419468 -33.919513 26.309772 -3.377201 6.137004 -74.386952 -12.357415 0.000000 0.000000 0.000000 35.275724 21.440317 36.952780 0.441246 17.378117 -1.979773 -12.088297 25.171106 -3.033004 0.000000 0.000000 0.000000 
-0.827909 0.896537 0.803947 17.788279 65.153268 20.286428 -0.349791 -3.569698 -21.829116 0.746960 -3.655779 20.766492 4.445426 -1.401283 -6.325233 0.000000 0.000000 0.000000 -9.130391 -4.250044 -19.249227 4.393661 -7.165949 23.943748 2.595047 1.461334 -14.172208 0.000000 0.000000 0.000000 12.944579 -3.405472 9.333637 0.267117 -6.708293 15.914097 -3.498319 25.276857 -8.119806 15.476386 -0.695630 -23.892359 0.000000 0.000000 0.000000 -31.313854 -29.732996 -10.110870 -33.092944 25.485411 -2.909308 10.469905 -72.552111 -14.722210 0.000000 0.000000 0.000000 35.221376 21.730858 37.081946 -0.481396 18.980123 -2.150639 -12.387430 21.427965 -2.569491 0.000000 0.000000 0.000000 
-0.843207 0.894269 0.810014 18.611417 65.754209 20.606738 -0.620269 -3.557466 -21.709678 0.611756 -3.466978 20.176908 4.792648 -1.600773 -6.876920 0.000000 0.000000 0.000000 -8.743669 -4.062965 -18.875425 4.206741 -7.031859 23.588573 2.409846 0.368005 -14.873605 0.000000 0.000000 0.000000 13.113371 -3.566764 9.731127 -0.195952 -6.952024 16.874883 -3.172064 24.504851 -9.104973 14.702389 -1.116478 -21.819511 0.000000 0.000000 0.000000 -31.006489 -29.784031 -8.966144 -33.066975 23.945586 -2.705974 13.855946 -70.195110 -16.329819 0.000000 0.000000 0.000000 36.448010 21.688311 37.148937 -0.983837 19.250749 -2.197988 -13.198042 20.887457 -2.640708 0.000000 0.000000 0.000000 
-0.855808 0.893667 0.815338 17.871670 65.250613 19.621449 -0.635937 -3.259779 -20.794704 0.795257 -3.102505 18.875888 5.250788 -1.452216 -7.455963 0.000000 0.000000 0.000000 -7.978325 -3.613424 -18.646258 3.984811 -6.821249 23.485734 2.624880 1.042084 -14.864313 0.000000 0.000000 0.000000 13.357969 -3.885966 10.635657 -0.144311 -6.096203 15.317132 -2.689650 23.361014 -7.658746 14.398053 -1.355066 -20.625943 0.000000 0.000000 0.000000 -31.284294 -29.506959 -8.601313 -31.078262 21.864874 -2.005551 13.960323 -68.463347 -14.943699 0.000000 0.000000 0.000000 36.458196 21.100862 36.337932 0.002169 20.475342 -2.359068 -15.259504 23.012460 -3.304601 0.000000 0.000000 0.000000 
-0.865865 0.896900 0.819626 17.226388 64.582835 18.781414 -0.858495 -2.937216 -19.692467 0.911729 -2.696923 17.372066 5.043927 -0.529898 -6.489256 0.000000 0.000000 0.000000 -6.930790 -2.948370 -17.989331 3.098903 -5.826827 22.272432 2.740563 1.241286 -14.572616 0.000000 0.000000 0.000000 13.678326 -3.833627 10.224332 -0.459090 -5.534987 14.764755 -2.041008 21.483533 -6.771218 12.842961 -0.800010 -20.152723 0.000000 0.000000 0.000000 -30.916368 -29.391843 -7.252052 -30.663745 19.466005 -1.709629 20.857738 -68.552989 -19.482005 0.000000 0.000000 0.000000 36.308773 20.733751 35.008050 2.079656 20.399863 -2.292005 -18.366182 28.186102 -4.753167 0.000000 0.000000 0.000000 
-0.873902 0.901731 0.822794 15.661112 63.912600 17.070510 -0.889117 -2.446692 -17.914823 1.330842 -2.273459 15.482636 4.750772 -0.751193 -6.172626 0.000000 0.000000 0.000000 -5.985869 -2.269036 -16.647288 3.183314 -5.135038 20.274407 2.818443 1.530546 -13.602312 0.000000 0.000000 0.000000 13.741708 -3.859983 10.393854 -0.358688 -4.834142 13.262557 -2.005234 19.916329 -5.416733 12.713669 -0.741544 -20.189833 0.000000 0.000000 0.000000 -31.164842 -29.440117 -6.715854 -28.897407 17.192688 -1.069713 29.448773 -70.540254 -25.886794 0.000000 0.000000 0.000000 36.557381 19.642981 33.969655 4.418670 21.009719 -2.379325 -23.223083 34.888960 -7.358221 0.000000 0.000000 0.000000 
-0.880266 0.908082 0.825444 14.284964 63.508210 15.432938 -1.130348 -1.981550 -16.025767 1.500750 -1.855872 13.589037 3.941063 -0.911927 -5.060502 0.000000 0.000000 0.000000 -5.201256 -1.621111 -14.605377 3.021618 -4.138400 17.419367 2.851915 1.650911 -12.272400 0.000000 0.000000 0.000000 13.607965 -3.488567 9.404655 -0.389248 -4.264872 12.059199 -1.496052 17.505850 -3.919249 11.461576 -0.219811 -20.011022 0.000000 0.000000 0.000000 -30.952482 -29.329249 -5.601825 -27.309452 14.174165 -0.535645 46.455295 -72.696050 -39.721036 0.000000 0.000000 0.000000 36.051210 18.660658 32.075116 8.731922 20.300303 -2.304314 -27.469180 44.717105 -10.884354 0.000000 0.000000 0.000000 
